<?xml version="1.0" standalone="no"?>
<!DOCTYPE svg PUBLIC "-//W3C//DTD SVG 20010904//EN"
 "http://www.w3.org/TR/2001/REC-SVG-20010904/DTD/svg10.dtd">
<svg version="1.0" xmlns="http://www.w3.org/2000/svg"
 width="920.000000pt" height="497.000000pt" viewBox="0 0 920.000000 497.000000"
 preserveAspectRatio="xMidYMid meet">

<g transform="translate(0.000000,497.000000) scale(0.100000,-0.100000)"
fill="#000000" stroke="none">
<path d="M4390 4843 c-313 -30 -567 -100 -825 -228 -253 -125 -448 -269 -661
-488 -446 -457 -664 -990 -665 -1627 -1 -281 27 -485 97 -717 106 -349 295
-661 573 -946 386 -395 799 -611 1331 -694 162 -25 557 -25 720 0 530 82 949
301 1332 696 378 388 589 819 653 1332 20 163 20 478 -1 634 -65 503 -277 941
-634 1309 -147 152 -258 246 -416 352 -307 207 -669 336 -1048 373 -100 10
-372 13 -456 4z m-590 -1443 c120 -14 211 -46 298 -103 207 -135 328 -341 377
-642 8 -49 15 -125 15 -167 l0 -78 -661 0 -662 0 7 -81 c22 -249 135 -407 344
-480 73 -26 226 -36 316 -20 148 26 284 129 323 246 l20 60 141 3 c117 2 142
0 142 -12 0 -30 -43 -154 -72 -206 -139 -251 -444 -387 -785 -350 -57 6 -134
20 -171 31 -238 73 -418 251 -502 495 -63 183 -81 456 -42 631 92 408 393 667
792 682 20 0 74 -4 120 -9z m2446 -6 c-4 -9 -144 -200 -312 -425 -168 -225
-304 -413 -302 -417 1 -5 159 -227 351 -494 191 -266 347 -488 347 -492 0 -3
-86 -5 -192 -4 l-191 3 -251 373 c-138 205 -255 372 -261 371 -5 -1 -122 -169
-260 -373 l-250 -371 -182 -3 c-101 -1 -183 0 -183 2 0 3 151 217 335 476 185
259 338 477 341 485 4 10 -379 545 -604 843 l-24 32 195 0 196 0 183 -267
c100 -148 199 -291 219 -320 l36 -52 227 319 227 320 177 3 c97 1 179 4 181 5
2 1 0 -5 -3 -14z"/>
<path d="M3565 3139 c-82 -17 -175 -67 -236 -129 -79 -78 -143 -213 -151 -315
l-3 -40 503 -3 502 -2 0 23 c0 40 -30 140 -60 203 -55 113 -150 197 -275 243
-70 26 -203 36 -280 20z"/>
</g>
</svg>
