<?xml version="1.0" standalone="no"?>
<!DOCTYPE svg PUBLIC "-//W3C//DTD SVG 20010904//EN"
 "http://www.w3.org/TR/2001/REC-SVG-20010904/DTD/svg10.dtd">
<svg version="1.0" xmlns="http://www.w3.org/2000/svg"
 width="260.000000pt" height="140.000000pt" viewBox="0 0 260.000000 140.000000"
 preserveAspectRatio="xMidYMid meet">

<g transform="translate(0.000000,140.000000) scale(0.100000,-0.100000)"
fill="#000000" stroke="none">
<path d="M726 1387 c-18 -13 -18 -22 -2 -238 9 -123 23 -300 31 -394 8 -93 19
-240 25 -325 15 -219 17 -228 50 -245 15 -8 58 -23 96 -34 38 -11 138 -42 223
-69 l154 -49 116 37 c64 21 169 55 234 76 65 21 126 43 134 49 22 16 112 1167
93 1190 -11 13 -89 15 -574 15 -454 0 -566 -3 -580 -13z m949 -309 l0 -73
-287 -3 c-272 -2 -288 -3 -288 -21 0 -10 3 -46 6 -80 l7 -62 269 2 c148 1 271
-1 274 -4 5 -4 -24 -432 -31 -452 -1 -6 -52 -26 -111 -44 -60 -18 -127 -39
-149 -47 -60 -21 -76 -18 -240 34 l-150 48 -9 118 c-7 97 -7 119 5 127 23 14
159 11 160 -3 0 -7 0 -31 0 -53 -1 -22 2 -45 6 -51 5 -5 43 -20 85 -32 l77
-22 85 21 c58 14 87 27 90 38 3 9 6 50 8 91 l3 75 -268 0 c-147 0 -267 3 -267
8 0 24 -31 406 -35 428 -2 15 -2 28 0 30 2 2 174 3 382 2 l378 -2 0 -73z"/>
</g>
</svg>
