<?xml version="1.0" standalone="no"?>
<!DOCTYPE svg PUBLIC "-//W3C//DTD SVG 20010904//EN"
 "http://www.w3.org/TR/2001/REC-SVG-20010904/DTD/svg10.dtd">
<svg version="1.0" xmlns="http://www.w3.org/2000/svg"
 width="512.000000pt" height="512.000000pt" viewBox="0 0 512.000000 512.000000"
 preserveAspectRatio="xMidYMid meet">

<g transform="translate(0.000000,512.000000) scale(0.100000,-0.100000)"
fill="#000000" stroke="none">
<path d="M1570 3813 l1 -88 229 -135 c127 -74 230 -137 230 -141 0 -9 -589
-352 -604 -352 -9 0 -509 286 -593 339 l-23 14 0 -369 0 -369 105 -59 c58 -32
197 -109 311 -171 l206 -114 91 55 92 55 3 -116 c1 -65 7 -119 13 -123 5 -3
-38 -33 -96 -67 -103 -60 -107 -61 -135 -47 -15 8 -148 85 -295 170 -147 86
-273 159 -281 162 -12 4 -14 -48 -12 -362 l3 -367 308 -169 307 -168 85 49
c126 75 115 81 115 -58 l0 -120 253 -138 c138 -75 278 -152 309 -170 l57 -33
306 180 305 181 0 84 c0 51 4 84 10 84 6 0 41 -17 79 -39 l68 -38 306 181 307
181 0 358 0 359 -32 -20 c-153 -92 -575 -335 -583 -335 -13 0 -215 116 -215
123 0 3 16 14 35 24 l35 19 0 84 0 85 74 -41 73 -40 194 115 c107 64 244 146
304 183 l110 67 3 357 2 358 -27 -15 c-16 -8 -154 -88 -309 -178 l-281 -165
-304 178 c-167 97 -303 180 -302 185 0 4 90 60 200 125 l198 118 3 111 3 112
-33 -19 c-425 -248 -584 -337 -592 -335 -5 2 -144 82 -308 178 -165 96 -301
174 -304 174 -2 0 -4 -39 -4 -87z m737 -507 c315 -182 543 -319 543 -326 0 -9
-590 -354 -605 -353 -10 1 -593 338 -608 352 -4 4 37 33 90 64 54 31 188 110
298 177 110 66 205 120 212 120 6 0 38 -15 70 -34z m445 -1242 c96 -58 108
-68 92 -77 -11 -6 -149 -86 -307 -179 l-289 -168 -296 171 c-164 95 -303 177
-310 182 -10 8 12 25 85 68 54 32 103 58 110 59 7 0 103 -50 213 -110 l202
-110 191 114 c106 63 194 115 196 115 2 1 53 -29 113 -65z"/>
<path d="M0 2563 l0 -1278 1100 -633 c605 -349 1108 -636 1118 -638 10 -2 472
259 1112 629 l1095 633 3 1282 c1 717 -2 1282 -7 1282 -4 0 -147 -78 -317
-173 l-309 -173 -3 -925 -2 -926 -782 -463 c-658 -389 -786 -461 -804 -454
-12 5 -367 209 -788 454 l-766 445 0 916 c0 721 -3 919 -12 927 -7 5 -150 90
-318 187 -168 98 -308 179 -312 182 -5 2 -8 -571 -8 -1274z"/>
</g>
</svg>
